<?xml version="1.0" encoding="utf-8"?>
<!-- Generator: Adobe Illustrator 15.1.0, SVG Export Plug-In . SVG Version: 6.00 Build 0)  -->
<!DOCTYPE svg PUBLIC "-//W3C//DTD SVG 1.1//EN" "http://www.w3.org/Graphics/SVG/1.1/DTD/svg11.dtd">
<svg version="1.1" id="Layer_1" xmlns="http://www.w3.org/2000/svg" xmlns:xlink="http://www.w3.org/1999/xlink" x="0px" y="0px"
	 width="559.48px" height="518.139px" viewBox="0 0 559.48 518.139" enable-background="new 0 0 559.48 518.139"
	 xml:space="preserve">
<g>
	<path fill="#002C5B" d="M78.758,375.244c5.498-38.539,28.533-71.521,60.764-90.357l0.143-0.08c18.443-10.721,40-16.75,62.871-16.75
		c16.344,0,31.961,3.133,46.283,8.832c-5.535,38.768-28.848,71.797-61.426,90.57l-0.127,0.076
		c-18.322,10.529-39.578,16.555-62.225,16.555C108.689,384.09,93.072,380.951,78.758,375.244z M202.535,250.082
		c-22.576,0-43.807-5.835-62.088-16.298c-0.242-0.146-0.484-0.29-0.73-0.43c-32.412-18.81-55.488-51.828-60.971-90.496
		c14.318-5.71,29.939-8.85,46.295-8.85c22.766,0,44.17,5.932,62.557,16.562l0.311,0.181c32.344,18.825,55.428,51.856,60.918,90.485
		C234.508,246.943,218.887,250.082,202.535,250.082z M327.59,125.571c-0.158,39.655-18.781,74.949-47.715,97.742
		c-29.059-22.896-47.717-58.405-47.717-98.272c0.006-39.857,18.66-75.363,47.711-98.261c29.059,22.901,47.717,58.414,47.717,98.279
		L327.59,125.571z M418.303,283.838c0.459,0.299,0.928,0.586,1.404,0.859l0.377,0.219c32.266,18.805,55.434,51.643,60.998,90.148
		c-14.412,5.797-30.154,8.988-46.641,8.988c-22.418,0-43.451-5.889-61.646-16.219c-0.232-0.143-0.469-0.285-0.709-0.422
		c-32.523-18.754-55.828-51.727-61.402-90.426c14.412-5.803,30.156-8.996,46.645-8.996
		C379.469,267.99,400.264,273.744,418.303,283.838z M419.537,233.454c-0.172,0.1-0.342,0.201-0.51,0.304
		c-18.232,10.389-39.342,16.324-61.828,16.324c-16.445,0-32.15-3.175-46.533-8.945c5.51-38.527,28.57-71.377,60.844-90.198
		l0.469-0.266c18.373-10.612,39.717-16.701,62.463-16.701c16.445,0,32.148,3.175,46.533,8.945
		C475.432,181.68,452.125,214.69,419.537,233.454z M232.287,393.029l-0.002-0.238c0.09-39.719,18.699-75.105,47.652-97.963
		c29.082,22.885,47.771,58.369,47.771,98.225c0,0.279,0.004,0.559,0.012,0.836c-0.26,39.492-18.875,74.652-47.73,97.404
		C250.938,468.396,232.287,432.891,232.287,393.029z"/>
</g>
</svg>
