<?xml version="1.0" encoding="utf-8"?>
<!-- Generator: Adobe Illustrator 15.1.0, SVG Export Plug-In . SVG Version: 6.00 Build 0)  -->
<!DOCTYPE svg PUBLIC "-//W3C//DTD SVG 1.1//EN" "http://www.w3.org/Graphics/SVG/1.1/DTD/svg11.dtd">
<svg version="1.1" id="Layer_1" xmlns="http://www.w3.org/2000/svg" xmlns:xlink="http://www.w3.org/1999/xlink" x="0px" y="0px"
	 width="465.137px" height="500px" viewBox="0 0 465.137 500" enable-background="new 0 0 465.137 500" xml:space="preserve">
<path fill-rule="evenodd" clip-rule="evenodd" fill="#44A954" d="M344.434,129.297c-21.924,0-42.529,5.859-60.254,16.113
	c-4.199,2.441-9.082,3.809-14.307,3.809c-15.771,0-28.516-12.793-28.516-28.516C241.357,54.053,187.305,0,120.654,0
	S0,54.004,0,120.654c0,44.629,24.072,83.643,60.059,104.541c8.594,4.883,14.404,14.16,14.404,24.805s-5.713,19.873-14.355,24.756
	C24.17,295.654,0,334.766,0,379.346C0,445.996,54.004,500,120.654,500s120.801-54.053,120.801-120.703
	c0-15.771,12.793-28.564,28.564-28.564c5.176,0,10.059,1.416,14.258,3.809c17.725,10.254,38.281,16.064,60.156,16.064
	c66.65,0,120.703-54.004,120.703-120.654S411.084,129.297,344.434,129.297z M344.434,278.516c-5.176,0-10.01-1.367-14.209-3.809
	l0.098,0.049c-17.725-10.254-38.33-16.162-60.303-16.162c-66.602,0-120.654,54.102-120.654,120.703
	c0,15.82-12.842,28.711-28.662,28.711s-28.662-12.842-28.662-28.662c0-10.449,5.615-19.775,14.014-24.756
	c36.133-20.85,60.498-59.863,60.498-104.59c0-44.678-24.219-83.838-60.303-104.688c-8.447-4.98-14.111-14.16-14.111-24.609
	c0-15.771,12.793-28.564,28.564-28.564s28.564,12.744,28.564,28.516c0,66.65,54.004,120.654,120.654,120.654
	c21.875,0,42.432-5.811,60.107-16.016c4.248-2.441,9.18-3.857,14.404-3.857c15.723,0,28.516,12.744,28.516,28.516
	S360.156,278.516,344.434,278.516z"/>
</svg>
