<?xml version="1.0" encoding="utf-8"?>
<!-- Generator: Adobe Illustrator 15.1.0, SVG Export Plug-In . SVG Version: 6.00 Build 0)  -->
<!DOCTYPE svg PUBLIC "-//W3C//DTD SVG 1.1//EN" "http://www.w3.org/Graphics/SVG/1.1/DTD/svg11.dtd">
<svg version="1.1" id="Layer_1" xmlns="http://www.w3.org/2000/svg" xmlns:xlink="http://www.w3.org/1999/xlink" x="0px" y="0px"
	 width="465.542px" height="500px" viewBox="0 0 465.542 500" enable-background="new 0 0 465.542 500" xml:space="preserve">
<path fill-rule="evenodd" clip-rule="evenodd" fill="#F06022" d="M405.067,274.767c-8.574-4.923-14.361-14.173-14.361-24.772
	c0-10.535,5.706-19.737,14.197-24.684c36.188-20.835,60.517-59.875,60.517-104.631C465.419,54.029,411.389,0,344.74,0
	c-66.65,0-120.679,54.046-120.679,120.697c0,15.766-12.792,28.547-28.558,28.547c-5.274,0-10.211-1.431-14.451-3.925
	c-17.743-10.259-38.403-15.984-60.373-15.984C54.028,129.334,0,183.363,0,250.013c0,66.65,54.028,120.679,120.68,120.679
	c21.909,0,42.471-5.843,60.182-16.051c4.285-2.552,9.292-3.885,14.641-3.885c15.823,0,28.682,12.743,28.682,28.563
	c0,66.651,54.027,120.68,120.677,120.68c66.652,0,120.68-54.028,120.68-120.68C465.542,334.643,441.152,295.63,405.067,274.767z
	 M344.829,407.886c-15.767,0-28.551-12.776-28.551-28.543c0-66.649-54.158-120.636-120.809-120.636
	c-22.071,0-42.876,5.818-60.678,16.166c-4.152,2.357-8.961,3.703-14.079,3.703c-15.766,0-28.546-12.78-28.546-28.546
	s12.78-28.547,28.546-28.547c5.139,0,10.061,1.419,14.225,3.793c17.781,10.319,38.493,16.082,60.533,16.082
	c66.651,0,120.694-54.012,120.694-120.662c0-15.767,12.777-28.547,28.543-28.547c15.767,0,28.547,12.781,28.547,28.547
	c0,10.561-5.734,19.782-14.261,24.72c-36.11,20.855-60.384,59.861-60.384,104.561c0,44.729,24.349,83.773,60.499,104.619
	c8.533,4.935,14.27,14.175,14.27,24.74C373.376,395.105,360.594,407.886,344.829,407.886z"/>
</svg>
